<svg width="24" height="24" viewBox="0 0 24 24" fill="none" xmlns="http://www.w3.org/2000/svg">
<path d="M18.6918 7.30592C18.4945 7.11004 18.2268 7 17.9477 7C17.6686 7 17.401 7.11004 17.2036 7.30592L11.9936 12.4779L6.78371 7.30592C6.5852 7.11559 6.31933 7.01028 6.04337 7.01266C5.7674 7.01504 5.50342 7.12492 5.30827 7.31865C5.11313 7.51237 5.00244 7.77443 5.00004 8.04839C4.99764 8.32235 5.10373 8.58628 5.29545 8.78334L11.2495 14.6941C11.4469 14.89 11.7146 15 11.9936 15C12.2727 15 12.5404 14.89 12.7378 14.6941L18.6918 8.78334C18.8892 8.5874 19 8.32169 19 8.04463C19 7.76757 18.8892 7.50186 18.6918 7.30592Z" fill="#898997"/>
</svg>
