<svg width="24" height="24" viewBox="0 0 24 24" fill="none" xmlns="http://www.w3.org/2000/svg">
<circle cx="12" cy="5" r="2" stroke="#F0FAFF" stroke-width="2"/>
<path d="M21.2566 15.0151C21.5036 15.493 21.4178 15.9198 21.1037 16.2873C20.7598 16.6896 20.1369 17 19.4172 17H11.7657H4.54536C3.84576 17 3.08363 16.6756 2.60735 16.2085C2.14674 15.7568 2.09759 15.358 2.27488 15.0151C2.76976 14.058 3.50345 13.1725 4.44711 12.4165C5.39103 11.6603 6.52269 11.0519 7.7815 10.6342C9.04015 10.2165 10.3945 10 11.7657 10C13.137 10 14.4913 10.2165 15.75 10.6342C17.0088 11.0519 18.1404 11.6603 19.0843 12.4165C20.028 13.1725 20.7617 14.058 21.2566 15.0151Z" stroke="#F0FAFF" stroke-width="2"/>
</svg>
