<svg width="356" height="88" viewBox="0 0 356 88" fill="none" xmlns="http://www.w3.org/2000/svg">
<path d="M4.816 16.208C3.61067 16.208 2.608 15.808 1.808 15.008C1.008 14.1973 0.608 13.1947 0.608 12C0.608 10.8053 1.008 9.808 1.808 9.008C2.608 8.19733 3.61067 7.792 4.816 7.792C5.60533 7.792 6.31467 7.984 6.944 8.368C7.57333 8.74133 8.04267 9.248 8.352 9.888L7.184 10.56C6.98133 10.1333 6.66667 9.792 6.24 9.536C5.824 9.28 5.34933 9.152 4.816 9.152C4.016 9.152 3.344 9.424 2.8 9.968C2.26667 10.5227 2 11.2 2 12C2 12.7893 2.26667 13.4613 2.8 14.016C3.344 14.56 4.016 14.832 4.816 14.832C5.34933 14.832 5.82933 14.7093 6.256 14.464C6.68267 14.208 7.008 13.8667 7.232 13.44L8.416 14.128C8.064 14.768 7.568 15.2747 6.928 15.648C6.288 16.0213 5.584 16.208 4.816 16.208ZM21.838 16H14.606V14.784L18.558 10.752C19.614 9.696 20.142 8.78933 20.142 8.032C20.142 7.41333 19.95 6.928 19.566 6.576C19.1927 6.21333 18.7233 6.032 18.158 6.032C17.102 6.032 16.334 6.53333 15.854 7.536L14.606 6.8C14.9473 6.08533 15.4273 5.54133 16.046 5.168C16.6647 4.784 17.3633 4.592 18.142 4.592C19.0913 4.592 19.9073 4.90133 20.59 5.52C21.2833 6.14933 21.63 6.98133 21.63 8.016C21.63 9.14667 20.9633 10.3787 19.63 11.712L16.766 14.56H21.838V16ZM31.1753 14.624C30.4286 15.68 29.3673 16.208 27.9913 16.208C26.6153 16.208 25.5539 15.68 24.8073 14.624C24.0499 13.5573 23.6713 12.1493 23.6713 10.4C23.6713 8.65067 24.0499 7.24267 24.8073 6.176C25.5539 5.12 26.6153 4.592 27.9913 4.592C29.3673 4.592 30.4286 5.12 31.1753 6.176C31.9326 7.24267 32.3113 8.65067 32.3113 10.4C32.3113 12.1493 31.9326 13.5573 31.1753 14.624ZM25.1593 10.4C25.1593 11.7867 25.4046 12.8587 25.8953 13.616C26.3859 14.3733 27.0846 14.752 27.9913 14.752C28.8979 14.752 29.5966 14.3733 30.0873 13.616C30.5886 12.8587 30.8393 11.7867 30.8393 10.4C30.8393 9.01333 30.5886 7.94133 30.0873 7.184C29.5966 6.416 28.8979 6.032 27.9913 6.032C27.0846 6.032 26.3859 6.41067 25.8953 7.168C25.4046 7.92533 25.1593 9.00267 25.1593 10.4ZM41.2743 16H34.0423V14.784L37.9943 10.752C39.0503 9.696 39.5783 8.78933 39.5783 8.032C39.5783 7.41333 39.3863 6.928 39.0023 6.576C38.6289 6.21333 38.1596 6.032 37.5943 6.032C36.5383 6.032 35.7703 6.53333 35.2903 7.536L34.0423 6.8C34.3836 6.08533 34.8636 5.54133 35.4823 5.168C36.1009 4.784 36.7996 4.592 37.5783 4.592C38.5276 4.592 39.3436 4.90133 40.0263 5.52C40.7196 6.14933 41.0663 6.98133 41.0663 8.016C41.0663 9.14667 40.3996 10.3787 39.0663 11.712L36.2023 14.56H41.2743V16ZM49.8755 6.112L47.4435 9.392C48.3182 9.552 49.0222 9.92533 49.5555 10.512C50.0888 11.0987 50.3555 11.824 50.3555 12.688C50.3555 13.7867 49.9822 14.6453 49.2355 15.264C48.4782 15.8933 47.5715 16.208 46.5155 16.208C45.6408 16.208 44.8782 16.0107 44.2275 15.616C43.5768 15.2213 43.1128 14.6613 42.8355 13.936L44.0835 13.2C44.4142 14.2347 45.2248 14.752 46.5155 14.752C47.2195 14.752 47.7848 14.5707 48.2115 14.208C48.6488 13.8347 48.8675 13.328 48.8675 12.688C48.8675 12.048 48.6488 11.5413 48.2115 11.168C47.7848 10.7947 47.2195 10.608 46.5155 10.608H46.1315L45.5395 9.696L48.1315 6.192H43.1555V4.8H49.8755V6.112ZM58.918 4.8V14.592H63.75V16H57.43V4.8H58.918ZM73.106 12.64H66.402C66.5407 13.344 66.866 13.8987 67.378 14.304C67.89 14.6987 68.53 14.896 69.298 14.896C70.354 14.896 71.122 14.5067 71.602 13.728L72.786 14.4C71.9967 15.6053 70.8233 16.208 69.266 16.208C68.0073 16.208 66.9727 15.8133 66.162 15.024C65.3727 14.2133 64.978 13.2053 64.978 12C64.978 10.784 65.3673 9.78133 66.146 8.992C66.9247 8.192 67.9327 7.792 69.17 7.792C70.3433 7.792 71.298 8.208 72.034 9.04C72.7807 9.85067 73.154 10.8427 73.154 12.016C73.154 12.2187 73.138 12.4267 73.106 12.64ZM69.17 9.104C68.434 9.104 67.8153 9.312 67.314 9.728C66.8233 10.144 66.5193 10.7093 66.402 11.424H71.746C71.6287 10.688 71.3353 10.1173 70.866 9.712C70.3967 9.30667 69.8313 9.104 69.17 9.104ZM79.3781 7.792C80.3168 7.792 81.0688 8.09067 81.6341 8.688C82.1995 9.27467 82.4821 10.0747 82.4821 11.088V16H81.0901V11.168C81.0901 10.528 80.9141 10.0267 80.5621 9.664C80.2101 9.30133 79.7248 9.12 79.1061 9.12C78.3915 9.12 77.8261 9.344 77.4101 9.792C76.9941 10.2293 76.7861 10.8853 76.7861 11.76V16H75.3941V8H76.7861V9.152C77.3408 8.24533 78.2048 7.792 79.3781 7.792ZM89.4174 8V9.344H87.2894V13.68C87.2894 14.0747 87.364 14.3573 87.5134 14.528C87.6734 14.688 87.9134 14.7733 88.2334 14.784C88.5534 14.784 88.948 14.7733 89.4174 14.752V16C88.1907 16.16 87.2947 16.0587 86.7294 15.696C86.1747 15.3333 85.8974 14.6613 85.8974 13.68V9.344H84.3134V8H85.8974V6.176L87.2894 5.76V8H89.4174ZM97.9231 9.376V8H99.3151V16H97.9231V14.624C97.2405 15.68 96.2325 16.208 94.8991 16.208C93.7685 16.208 92.8138 15.8027 92.0351 14.992C91.2458 14.1707 90.8511 13.1733 90.8511 12C90.8511 10.8373 91.2458 9.84533 92.0351 9.024C92.8245 8.20267 93.7791 7.792 94.8991 7.792C96.2325 7.792 97.2405 8.32 97.9231 9.376ZM95.0751 14.864C95.8858 14.864 96.5631 14.592 97.1071 14.048C97.6511 13.4827 97.9231 12.8 97.9231 12C97.9231 11.1893 97.6511 10.512 97.1071 9.968C96.5631 9.41333 95.8858 9.136 95.0751 9.136C94.2751 9.136 93.6031 9.41333 93.0591 9.968C92.5151 10.512 92.2431 11.1893 92.2431 12C92.2431 12.8 92.5151 13.4827 93.0591 14.048C93.6031 14.592 94.2751 14.864 95.0751 14.864ZM102.944 16.176C102.656 16.176 102.411 16.0747 102.208 15.872C102.005 15.6693 101.904 15.424 101.904 15.136C101.904 14.848 102.005 14.6027 102.208 14.4C102.411 14.1973 102.656 14.096 102.944 14.096C103.243 14.096 103.488 14.1973 103.68 14.4C103.883 14.6027 103.984 14.848 103.984 15.136C103.984 15.424 103.883 15.6693 103.68 15.872C103.488 16.0747 103.243 16.176 102.944 16.176ZM109.714 16.208C108.509 16.208 107.506 15.808 106.706 15.008C105.906 14.1973 105.506 13.1947 105.506 12C105.506 10.8053 105.906 9.808 106.706 9.008C107.506 8.19733 108.509 7.792 109.714 7.792C110.503 7.792 111.213 7.984 111.842 8.368C112.471 8.74133 112.941 9.248 113.25 9.888L112.082 10.56C111.879 10.1333 111.565 9.792 111.138 9.536C110.722 9.28 110.247 9.152 109.714 9.152C108.914 9.152 108.242 9.424 107.698 9.968C107.165 10.5227 106.898 11.2 106.898 12C106.898 12.7893 107.165 13.4613 107.698 14.016C108.242 14.56 108.914 14.832 109.714 14.832C110.247 14.832 110.727 14.7093 111.154 14.464C111.581 14.208 111.906 13.8667 112.13 13.44L113.314 14.128C112.962 14.768 112.466 15.2747 111.826 15.648C111.186 16.0213 110.482 16.208 109.714 16.208ZM121.971 14.992C121.16 15.8027 120.163 16.208 118.979 16.208C117.795 16.208 116.798 15.8027 115.987 14.992C115.176 14.1813 114.771 13.184 114.771 12C114.771 10.816 115.176 9.81867 115.987 9.008C116.798 8.19733 117.795 7.792 118.979 7.792C120.163 7.792 121.16 8.19733 121.971 9.008C122.792 9.82933 123.203 10.8267 123.203 12C123.203 13.1733 122.792 14.1707 121.971 14.992ZM118.979 14.848C119.779 14.848 120.451 14.576 120.995 14.032C121.539 13.488 121.811 12.8107 121.811 12C121.811 11.1893 121.539 10.512 120.995 9.968C120.451 9.424 119.779 9.152 118.979 9.152C118.19 9.152 117.523 9.424 116.979 9.968C116.435 10.512 116.163 11.1893 116.163 12C116.163 12.8107 116.435 13.488 116.979 14.032C117.523 14.576 118.19 14.848 118.979 14.848ZM134.124 7.792C135.031 7.792 135.756 8.08533 136.3 8.672C136.855 9.25867 137.132 10.0427 137.132 11.024V16H135.74V11.072C135.74 10.464 135.58 9.98933 135.26 9.648C134.951 9.296 134.524 9.12 133.98 9.12C133.361 9.12 132.876 9.328 132.524 9.744C132.183 10.1493 132.012 10.752 132.012 11.552V16H130.62V11.072C130.62 10.464 130.465 9.98933 130.156 9.648C129.857 9.296 129.447 9.12 128.924 9.12C128.316 9.12 127.82 9.33333 127.436 9.76C127.063 10.176 126.876 10.7733 126.876 11.552V16H125.484V8H126.876V9.072C127.42 8.21867 128.215 7.792 129.26 7.792C130.337 7.792 131.121 8.24533 131.612 9.152C132.167 8.24533 133.004 7.792 134.124 7.792ZM143.894 10.4C143.894 8.77867 144.454 7.408 145.574 6.288C146.694 5.15733 148.065 4.592 149.686 4.592C151.308 4.592 152.678 5.15733 153.798 6.288C154.929 7.408 155.494 8.77867 155.494 10.4C155.494 12.0107 154.929 13.3813 153.798 14.512C152.678 15.6427 151.308 16.208 149.686 16.208C148.065 16.208 146.694 15.6427 145.574 14.512C144.454 13.3707 143.894 12 143.894 10.4ZM154.006 10.4C154.006 9.16267 153.59 8.128 152.758 7.296C151.948 6.45333 150.924 6.032 149.686 6.032C148.46 6.032 147.43 6.45333 146.598 7.296C145.777 8.13867 145.366 9.17333 145.366 10.4C145.366 11.616 145.777 12.6507 146.598 13.504C147.43 14.336 148.46 14.752 149.686 14.752C150.924 14.752 151.948 14.336 152.758 13.504C153.59 12.6507 154.006 11.616 154.006 10.4ZM157.331 10.4C157.331 8.77867 157.891 7.408 159.011 6.288C160.131 5.15733 161.502 4.592 163.123 4.592C164.744 4.592 166.115 5.15733 167.235 6.288C168.366 7.408 168.931 8.77867 168.931 10.4C168.931 12.0107 168.366 13.3813 167.235 14.512C166.115 15.6427 164.744 16.208 163.123 16.208C161.502 16.208 160.131 15.6427 159.011 14.512C157.891 13.3707 157.331 12 157.331 10.4ZM167.443 10.4C167.443 9.16267 167.027 8.128 166.195 7.296C165.384 6.45333 164.36 6.032 163.123 6.032C161.896 6.032 160.867 6.45333 160.035 7.296C159.214 8.13867 158.803 9.17333 158.803 10.4C158.803 11.616 159.214 12.6507 160.035 13.504C160.867 14.336 161.896 14.752 163.123 14.752C164.36 14.752 165.384 14.336 166.195 13.504C167.027 12.6507 167.443 11.616 167.443 10.4ZM170.768 10.4C170.768 8.77867 171.328 7.408 172.448 6.288C173.568 5.15733 174.939 4.592 176.56 4.592C178.181 4.592 179.552 5.15733 180.672 6.288C181.803 7.408 182.368 8.77867 182.368 10.4C182.368 12.0107 181.803 13.3813 180.672 14.512C179.552 15.6427 178.181 16.208 176.56 16.208C174.939 16.208 173.568 15.6427 172.448 14.512C171.328 13.3707 170.768 12 170.768 10.4ZM180.88 10.4C180.88 9.16267 180.464 8.128 179.632 7.296C178.821 6.45333 177.797 6.032 176.56 6.032C175.333 6.032 174.304 6.45333 173.472 7.296C172.651 8.13867 172.24 9.17333 172.24 10.4C172.24 11.616 172.651 12.6507 173.472 13.504C174.304 14.336 175.333 14.752 176.56 14.752C177.797 14.752 178.821 14.336 179.632 13.504C180.464 12.6507 180.88 11.616 180.88 10.4ZM188.461 16V14.656C189.218 14.7627 189.773 14.5493 190.125 14.016C190.488 13.4827 190.669 12.528 190.669 11.152V4.8H198.061V16H196.573V6.208H192.157V11.152C192.157 12.144 192.061 12.9813 191.869 13.664C191.688 14.3467 191.421 14.8587 191.069 15.2C190.728 15.5413 190.344 15.776 189.917 15.904C189.501 16.0213 189.016 16.0533 188.461 16ZM208.644 12.64H201.94C202.079 13.344 202.404 13.8987 202.916 14.304C203.428 14.6987 204.068 14.896 204.836 14.896C205.892 14.896 206.66 14.5067 207.14 13.728L208.324 14.4C207.535 15.6053 206.361 16.208 204.804 16.208C203.545 16.208 202.511 15.8133 201.7 15.024C200.911 14.2133 200.516 13.2053 200.516 12C200.516 10.784 200.905 9.78133 201.684 8.992C202.463 8.192 203.471 7.792 204.708 7.792C205.881 7.792 206.836 8.208 207.572 9.04C208.319 9.85067 208.692 10.8427 208.692 12.016C208.692 12.2187 208.676 12.4267 208.644 12.64ZM204.708 9.104C203.972 9.104 203.353 9.312 202.852 9.728C202.361 10.144 202.057 10.7093 201.94 11.424H207.284C207.167 10.688 206.873 10.1173 206.404 9.712C205.935 9.30667 205.369 9.104 204.708 9.104ZM216.468 11.328V8H217.86V16H216.468V12.656H212.324V16H210.932V8H212.324V11.328H216.468ZM219.723 8H226.571V9.344H223.851V16H222.459V9.344H219.723V8ZM234.743 9.376V8H236.135V16H234.743V14.624C234.06 15.68 233.052 16.208 231.719 16.208C230.588 16.208 229.633 15.8027 228.855 14.992C228.065 14.1707 227.671 13.1733 227.671 12C227.671 10.8373 228.065 9.84533 228.855 9.024C229.644 8.20267 230.599 7.792 231.719 7.792C233.052 7.792 234.06 8.32 234.743 9.376ZM231.895 14.864C232.705 14.864 233.383 14.592 233.927 14.048C234.471 13.4827 234.743 12.8 234.743 12C234.743 11.1893 234.471 10.512 233.927 9.968C233.383 9.41333 232.705 9.136 231.895 9.136C231.095 9.136 230.423 9.41333 229.879 9.968C229.335 10.512 229.062 11.1893 229.062 12C229.062 12.8 229.335 13.4827 229.879 14.048C230.423 14.592 231.095 14.864 231.895 14.864ZM250.307 3.2L243.907 17.6H243.075L249.475 3.2H250.307ZM2.688 33.2H5.408C6.368 33.2 7.18933 33.5307 7.872 34.192C8.544 34.8427 8.88 35.6427 8.88 36.592C8.88 37.552 8.544 38.3627 7.872 39.024C7.22133 39.6747 6.4 40 5.408 40H1.2V28.8H7.92V30.208H2.688V33.2ZM2.688 38.608H5.408C5.96267 38.608 6.432 38.416 6.816 38.032C7.21067 37.648 7.408 37.168 7.408 36.592C7.408 36.0267 7.21067 35.552 6.816 35.168C6.432 34.784 5.96267 34.592 5.408 34.592H2.688V38.608ZM11.6229 40.176C11.3349 40.176 11.0895 40.0747 10.8869 39.872C10.6842 39.6693 10.5829 39.424 10.5829 39.136C10.5829 38.848 10.6842 38.6027 10.8869 38.4C11.0895 38.1973 11.3349 38.096 11.6229 38.096C11.9215 38.096 12.1669 38.1973 12.3589 38.4C12.5615 38.6027 12.6629 38.848 12.6629 39.136C12.6629 39.424 12.5615 39.6693 12.3589 39.872C12.1669 40.0747 11.9215 40.176 11.6229 40.176ZM28.5055 40H27.0175V31.648L21.2575 40H20.0575V28.8H21.5455V37.168L27.3055 28.8H28.5055V40ZM38.4692 33.552V28.8H39.9412V40H38.4692V34.96H33.0292V40H31.5412V28.8H33.0292V33.552H38.4692ZM49.9061 33.552V28.8H51.3781V40H49.9061V34.96H44.4661V40H42.9781V28.8H44.4661V33.552H49.9061Z" fill="#E1E1E1"/>
<path d="M1.2 68.8H9.328V80H7.84V70.208H2.688V80H1.2V68.8ZM18.9793 78.992C18.1686 79.8027 17.1713 80.208 15.9873 80.208C14.8033 80.208 13.8059 79.8027 12.9953 78.992C12.1846 78.1813 11.7793 77.184 11.7793 76C11.7793 74.816 12.1846 73.8187 12.9953 73.008C13.8059 72.1973 14.8033 71.792 15.9873 71.792C17.1713 71.792 18.1686 72.1973 18.9793 73.008C19.8006 73.8293 20.2113 74.8267 20.2113 76C20.2113 77.1733 19.8006 78.1707 18.9793 78.992ZM15.9873 78.848C16.7873 78.848 17.4593 78.576 18.0033 78.032C18.5473 77.488 18.8193 76.8107 18.8193 76C18.8193 75.1893 18.5473 74.512 18.0033 73.968C17.4593 73.424 16.7873 73.152 15.9873 73.152C15.1979 73.152 14.5313 73.424 13.9873 73.968C13.4433 74.512 13.1713 75.1893 13.1713 76C13.1713 76.8107 13.4433 77.488 13.9873 78.032C14.5313 78.576 15.1979 78.848 15.9873 78.848ZM22.947 72H28.883V80H27.491V73.344H24.339V76.608C24.339 77.888 24.083 78.8 23.571 79.344C23.059 79.8773 22.307 80.096 21.315 80V78.688C21.8697 78.7627 22.2803 78.64 22.547 78.32C22.8137 77.9893 22.947 77.408 22.947 76.576V72ZM33.0083 77.616L37.4403 72H38.5603V80H37.1843V74.384L32.7523 80H31.6323V72H33.0083V77.616ZM40.4231 72H47.2711V73.344H44.5511V80H43.1591V73.344H40.4231V72ZM50.507 77.616L54.939 72H56.059V80H54.683V74.384L50.251 80H49.131V72H50.507V77.616ZM61.6339 75.872L65.5859 80H63.8579L60.2099 76.208V80H58.8179V72H60.2099V75.536L63.6659 72H65.4579L61.6339 75.872ZM73.41 73.376V72H74.802V80H73.41V78.624C72.7273 79.68 71.7193 80.208 70.386 80.208C69.2553 80.208 68.3007 79.8027 67.522 78.992C66.7327 78.1707 66.338 77.1733 66.338 76C66.338 74.8373 66.7327 73.8453 67.522 73.024C68.3113 72.2027 69.266 71.792 70.386 71.792C71.7193 71.792 72.7273 72.32 73.41 73.376ZM70.562 78.864C71.3727 78.864 72.05 78.592 72.594 78.048C73.138 77.4827 73.41 76.8 73.41 76C73.41 75.1893 73.138 74.512 72.594 73.968C72.05 73.4133 71.3727 73.136 70.562 73.136C69.762 73.136 69.09 73.4133 68.546 73.968C68.002 74.512 67.73 75.1893 67.73 76C67.73 76.8 68.002 77.4827 68.546 78.048C69.09 78.592 69.762 78.864 70.562 78.864ZM88.943 78.992C88.1323 79.8027 87.135 80.208 85.951 80.208C84.767 80.208 83.7697 79.8027 82.959 78.992C82.1483 78.1813 81.743 77.184 81.743 76C81.743 74.816 82.1483 73.8187 82.959 73.008C83.7697 72.1973 84.767 71.792 85.951 71.792C87.135 71.792 88.1323 72.1973 88.943 73.008C89.7643 73.8293 90.175 74.8267 90.175 76C90.175 77.1733 89.7643 78.1707 88.943 78.992ZM85.951 78.848C86.751 78.848 87.423 78.576 87.967 78.032C88.511 77.488 88.783 76.8107 88.783 76C88.783 75.1893 88.511 74.512 87.967 73.968C87.423 73.424 86.751 73.152 85.951 73.152C85.1617 73.152 84.495 73.424 83.951 73.968C83.407 74.512 83.135 75.1893 83.135 76C83.135 76.8107 83.407 77.488 83.951 78.032C84.495 78.576 85.1617 78.848 85.951 78.848ZM96.088 80.208C94.904 80.208 93.928 79.8187 93.16 79.04C92.392 78.2507 92.008 77.248 92.008 76.032C92.008 74.656 92.2053 73.6053 92.6 72.88C93.0053 72.144 93.8267 71.4773 95.064 70.88C95.128 70.848 95.2027 70.8107 95.288 70.768C95.384 70.7253 95.496 70.6773 95.624 70.624C95.7627 70.56 95.88 70.5067 95.976 70.464L96.84 70.08C97.6933 69.6533 98.1467 69.1413 98.2 68.544L99.32 69.184C99.2453 69.5573 99.1227 69.856 98.952 70.08C98.9413 70.1013 98.9093 70.1493 98.856 70.224C98.8027 70.288 98.7653 70.336 98.744 70.368C98.7227 70.3893 98.6853 70.4267 98.632 70.48C98.5893 70.5227 98.5413 70.5653 98.488 70.608C98.4453 70.6507 98.3867 70.6933 98.312 70.736C97.9173 70.9813 97.6347 71.1413 97.464 71.216C97.4 71.248 97.3307 71.28 97.256 71.312C97.192 71.344 97.1387 71.3707 97.096 71.392C97.0533 71.4133 97.0213 71.4293 97 71.44L96.472 71.664L95.96 71.872C95.2453 72.1813 94.7173 72.496 94.376 72.816C94.0347 73.136 93.7893 73.5413 93.64 74.032C93.9707 73.6267 94.3867 73.3173 94.888 73.104C95.4 72.8907 95.9227 72.784 96.456 72.784C97.4693 72.784 98.3173 73.1253 99 73.808C99.704 74.5013 100.056 75.3813 100.056 76.448C100.056 77.536 99.6827 78.4373 98.936 79.152C98.1787 79.856 97.2293 80.208 96.088 80.208ZM98.664 76.448C98.664 75.7333 98.4293 75.152 97.96 74.704C97.5013 74.2453 96.8933 74.016 96.136 74.016C95.464 74.016 94.8453 74.2347 94.28 74.672C93.736 75.1093 93.464 75.6747 93.464 76.368C93.464 77.0933 93.7147 77.6907 94.216 78.16C94.7173 78.6293 95.3413 78.864 96.088 78.864C96.8453 78.864 97.4587 78.6347 97.928 78.176C98.4187 77.7173 98.664 77.1413 98.664 76.448ZM106.59 71.792C107.71 71.792 108.665 72.2027 109.454 73.024C110.243 73.8453 110.638 74.8373 110.638 76C110.638 77.1733 110.243 78.1707 109.454 78.992C108.675 79.8027 107.721 80.208 106.59 80.208C105.267 80.208 104.259 79.68 103.566 78.624V83.2H102.174V72H103.566V73.376C104.259 72.32 105.267 71.792 106.59 71.792ZM106.414 78.864C107.214 78.864 107.886 78.592 108.43 78.048C108.974 77.4827 109.246 76.8 109.246 76C109.246 75.1893 108.974 74.512 108.43 73.968C107.886 73.4133 107.214 73.136 106.414 73.136C105.603 73.136 104.926 73.4133 104.382 73.968C103.838 74.512 103.566 75.1893 103.566 76C103.566 76.8 103.838 77.4827 104.382 78.048C104.926 78.592 105.603 78.864 106.414 78.864ZM119.563 73.376V72H120.955V80H119.563V78.624C118.88 79.68 117.872 80.208 116.539 80.208C115.408 80.208 114.454 79.8027 113.675 78.992C112.886 78.1707 112.491 77.1733 112.491 76C112.491 74.8373 112.886 73.8453 113.675 73.024C114.464 72.2027 115.419 71.792 116.539 71.792C117.872 71.792 118.88 72.32 119.563 73.376ZM116.715 78.864C117.526 78.864 118.203 78.592 118.747 78.048C119.291 77.4827 119.563 76.8 119.563 76C119.563 75.1893 119.291 74.512 118.747 73.968C118.203 73.4133 117.526 73.136 116.715 73.136C115.915 73.136 115.243 73.4133 114.699 73.968C114.155 74.512 113.883 75.1893 113.883 76C113.883 76.8 114.155 77.4827 114.699 78.048C115.243 78.592 115.915 78.864 116.715 78.864ZM127.336 80.208C126.152 80.208 125.176 79.8187 124.408 79.04C123.64 78.2507 123.256 77.248 123.256 76.032C123.256 74.656 123.453 73.6053 123.848 72.88C124.253 72.144 125.075 71.4773 126.312 70.88C126.376 70.848 126.451 70.8107 126.536 70.768C126.632 70.7253 126.744 70.6773 126.872 70.624C127.011 70.56 127.128 70.5067 127.224 70.464L128.088 70.08C128.941 69.6533 129.395 69.1413 129.448 68.544L130.568 69.184C130.493 69.5573 130.371 69.856 130.2 70.08C130.189 70.1013 130.157 70.1493 130.104 70.224C130.051 70.288 130.013 70.336 129.992 70.368C129.971 70.3893 129.933 70.4267 129.88 70.48C129.837 70.5227 129.789 70.5653 129.736 70.608C129.693 70.6507 129.635 70.6933 129.56 70.736C129.165 70.9813 128.883 71.1413 128.712 71.216C128.648 71.248 128.579 71.28 128.504 71.312C128.44 71.344 128.387 71.3707 128.344 71.392C128.301 71.4133 128.269 71.4293 128.248 71.44L127.72 71.664L127.208 71.872C126.493 72.1813 125.965 72.496 125.624 72.816C125.283 73.136 125.037 73.5413 124.888 74.032C125.219 73.6267 125.635 73.3173 126.136 73.104C126.648 72.8907 127.171 72.784 127.704 72.784C128.717 72.784 129.565 73.1253 130.248 73.808C130.952 74.5013 131.304 75.3813 131.304 76.448C131.304 77.536 130.931 78.4373 130.184 79.152C129.427 79.856 128.477 80.208 127.336 80.208ZM129.912 76.448C129.912 75.7333 129.677 75.152 129.208 74.704C128.749 74.2453 128.141 74.016 127.384 74.016C126.712 74.016 126.093 74.2347 125.528 74.672C124.984 75.1093 124.712 75.6747 124.712 76.368C124.712 77.0933 124.963 77.6907 125.464 78.16C125.965 78.6293 126.589 78.864 127.336 78.864C128.093 78.864 128.707 78.6347 129.176 78.176C129.667 77.7173 129.912 77.1413 129.912 76.448ZM140.174 78.992C139.364 79.8027 138.366 80.208 137.182 80.208C135.998 80.208 135.001 79.8027 134.19 78.992C133.38 78.1813 132.974 77.184 132.974 76C132.974 74.816 133.38 73.8187 134.19 73.008C135.001 72.1973 135.998 71.792 137.182 71.792C138.366 71.792 139.364 72.1973 140.174 73.008C140.996 73.8293 141.406 74.8267 141.406 76C141.406 77.1733 140.996 78.1707 140.174 78.992ZM137.182 78.848C137.982 78.848 138.654 78.576 139.198 78.032C139.742 77.488 140.014 76.8107 140.014 76C140.014 75.1893 139.742 74.512 139.198 73.968C138.654 73.424 137.982 73.152 137.182 73.152C136.393 73.152 135.726 73.424 135.182 73.968C134.638 74.512 134.366 75.1893 134.366 76C134.366 76.8107 134.638 77.488 135.182 78.032C135.726 78.576 136.393 78.848 137.182 78.848ZM142.479 72H149.327V73.344H146.607V80H145.215V73.344H142.479V72ZM154.003 75.872L157.955 80H156.227L152.579 76.208V80H151.187V72H152.579V75.536L156.035 72H157.827L154.003 75.872ZM161.265 77.616L165.697 72H166.817V80H165.441V74.384L161.009 80H159.889V72H161.265V77.616ZM174.216 72H181.144V80H179.752V73.328H175.608V80H174.216V72ZM191.583 76.64H184.879C185.018 77.344 185.343 77.8987 185.855 78.304C186.367 78.6987 187.007 78.896 187.775 78.896C188.831 78.896 189.599 78.5067 190.079 77.728L191.263 78.4C190.474 79.6053 189.3 80.208 187.743 80.208C186.484 80.208 185.45 79.8133 184.639 79.024C183.85 78.2133 183.455 77.2053 183.455 76C183.455 74.784 183.844 73.7813 184.623 72.992C185.402 72.192 186.41 71.792 187.647 71.792C188.82 71.792 189.775 72.208 190.511 73.04C191.258 73.8507 191.631 74.8427 191.631 76.016C191.631 76.2187 191.615 76.4267 191.583 76.64ZM187.647 73.104C186.911 73.104 186.292 73.312 185.791 73.728C185.3 74.144 184.996 74.7093 184.879 75.424H190.223C190.106 74.688 189.812 74.1173 189.343 73.712C188.874 73.3067 188.308 73.104 187.647 73.104ZM198.287 71.792C199.407 71.792 200.362 72.2027 201.151 73.024C201.94 73.8453 202.335 74.8373 202.335 76C202.335 77.1733 201.94 78.1707 201.151 78.992C200.372 79.8027 199.418 80.208 198.287 80.208C196.964 80.208 195.956 79.68 195.263 78.624V83.2H193.871V72H195.263V73.376C195.956 72.32 196.964 71.792 198.287 71.792ZM198.111 78.864C198.911 78.864 199.583 78.592 200.127 78.048C200.671 77.4827 200.943 76.8 200.943 76C200.943 75.1893 200.671 74.512 200.127 73.968C199.583 73.4133 198.911 73.136 198.111 73.136C197.3 73.136 196.623 73.4133 196.079 73.968C195.535 74.512 195.263 75.1893 195.263 76C195.263 76.8 195.535 77.4827 196.079 78.048C196.623 78.592 197.3 78.864 198.111 78.864ZM208.396 80.208C207.191 80.208 206.188 79.808 205.388 79.008C204.588 78.1973 204.188 77.1947 204.188 76C204.188 74.8053 204.588 73.808 205.388 73.008C206.188 72.1973 207.191 71.792 208.396 71.792C209.185 71.792 209.895 71.984 210.524 72.368C211.153 72.7413 211.623 73.248 211.932 73.888L210.764 74.56C210.561 74.1333 210.247 73.792 209.82 73.536C209.404 73.28 208.929 73.152 208.396 73.152C207.596 73.152 206.924 73.424 206.38 73.968C205.847 74.5227 205.58 75.2 205.58 76C205.58 76.7893 205.847 77.4613 206.38 78.016C206.924 78.56 207.596 78.832 208.396 78.832C208.929 78.832 209.409 78.7093 209.836 78.464C210.263 78.208 210.588 77.8667 210.812 77.44L211.996 78.128C211.644 78.768 211.148 79.2747 210.508 79.648C209.868 80.0213 209.164 80.208 208.396 80.208ZM220.653 78.992C219.842 79.8027 218.845 80.208 217.661 80.208C216.477 80.208 215.48 79.8027 214.669 78.992C213.858 78.1813 213.453 77.184 213.453 76C213.453 74.816 213.858 73.8187 214.669 73.008C215.48 72.1973 216.477 71.792 217.661 71.792C218.845 71.792 219.842 72.1973 220.653 73.008C221.474 73.8293 221.885 74.8267 221.885 76C221.885 77.1733 221.474 78.1707 220.653 78.992ZM217.661 78.848C218.461 78.848 219.133 78.576 219.677 78.032C220.221 77.488 220.493 76.8107 220.493 76C220.493 75.1893 220.221 74.512 219.677 73.968C219.133 73.424 218.461 73.152 217.661 73.152C216.872 73.152 216.205 73.424 215.661 73.968C215.117 74.512 214.845 75.1893 214.845 76C214.845 76.8107 215.117 77.488 215.661 78.032C216.205 78.576 216.872 78.848 217.661 78.848ZM229.702 75.328V72H231.094V80H229.702V76.656H225.558V80H224.166V72H225.558V75.328H229.702ZM240.477 73.376V72H241.869V80H240.477V78.624C239.794 79.68 238.786 80.208 237.453 80.208C236.322 80.208 235.368 79.8027 234.589 78.992C233.8 78.1707 233.405 77.1733 233.405 76C233.405 74.8373 233.8 73.8453 234.589 73.024C235.378 72.2027 236.333 71.792 237.453 71.792C238.786 71.792 239.794 72.32 240.477 73.376ZM237.629 78.864C238.44 78.864 239.117 78.592 239.661 78.048C240.205 77.4827 240.477 76.8 240.477 76C240.477 75.1893 240.205 74.512 239.661 73.968C239.117 73.4133 238.44 73.136 237.629 73.136C236.829 73.136 236.157 73.4133 235.613 73.968C235.069 74.512 234.797 75.1893 234.797 76C234.797 76.8 235.069 77.4827 235.613 78.048C236.157 78.592 236.829 78.864 237.629 78.864ZM245.354 72H251.29V80H249.898V73.344H246.746V76.608C246.746 77.888 246.49 78.8 245.978 79.344C245.466 79.8773 244.714 80.096 243.722 80V78.688C244.277 78.7627 244.687 78.64 244.954 78.32C245.221 77.9893 245.354 77.408 245.354 76.576V72ZM255.431 74.88H257.415C258.215 74.88 258.876 75.12 259.399 75.6C259.932 76.0693 260.199 76.6827 260.199 77.44C260.199 78.1973 259.932 78.816 259.399 79.296C258.866 79.7653 258.204 80 257.415 80H254.039V72H255.431V74.88ZM255.431 78.704H257.415C257.82 78.704 258.156 78.5867 258.423 78.352C258.69 78.1173 258.823 77.8133 258.823 77.44C258.823 77.0667 258.684 76.7627 258.407 76.528C258.14 76.2827 257.81 76.16 257.415 76.16H255.431V78.704ZM267.871 75.328V72H269.263V80H267.871V76.656H263.727V80H262.335V72H263.727V75.328H267.871ZM273.414 74.88H275.398C276.198 74.88 276.86 75.12 277.382 75.6C277.916 76.0693 278.182 76.6827 278.182 77.44C278.182 78.1973 277.916 78.816 277.382 79.296C276.849 79.7653 276.188 80 275.398 80H272.022V72H273.414V74.88ZM279.222 80V72H280.614V80H279.222ZM273.414 78.704H275.398C275.804 78.704 276.14 78.5867 276.406 78.352C276.673 78.1173 276.806 77.8133 276.806 77.44C276.806 77.0667 276.668 76.7627 276.39 76.528C276.124 76.2827 275.793 76.16 275.398 76.16H273.414V78.704ZM287.269 75.872L290.325 80H288.693L286.453 76.976L284.197 80H282.565L285.637 75.888L282.741 72H284.389L286.453 74.784L288.517 72H290.149L287.269 75.872ZM303.775 72V78.672H304.879V82.144H303.503V80H297.503V82.144H296.127V78.672H297.103C297.615 77.968 297.871 76.9813 297.871 75.712V72H303.775ZM298.687 78.672H302.399V73.296H299.247V75.712C299.247 76.8853 299.061 77.872 298.687 78.672ZM313.331 73.376V72H314.723V80H313.331V78.624C312.649 79.68 311.641 80.208 310.307 80.208C309.177 80.208 308.222 79.8027 307.443 78.992C306.654 78.1707 306.259 77.1733 306.259 76C306.259 74.8373 306.654 73.8453 307.443 73.024C308.233 72.2027 309.187 71.792 310.307 71.792C311.641 71.792 312.649 72.32 313.331 73.376ZM310.483 78.864C311.294 78.864 311.971 78.592 312.515 78.048C313.059 77.4827 313.331 76.8 313.331 76C313.331 75.1893 313.059 74.512 312.515 73.968C311.971 73.4133 311.294 73.136 310.483 73.136C309.683 73.136 309.011 73.4133 308.467 73.968C307.923 74.512 307.651 75.1893 307.651 76C307.651 76.8 307.923 77.4827 308.467 78.048C309.011 78.592 309.683 78.864 310.483 78.864ZM323.008 75.328V72H324.4V80H323.008V76.656H318.864V80H317.472V72H318.864V75.328H323.008ZM332.695 75.328V72H334.087V80H332.695V76.656H328.551V80H327.159V72H328.551V75.328H332.695ZM338.238 74.88H340.222C341.022 74.88 341.683 75.12 342.206 75.6C342.739 76.0693 343.006 76.6827 343.006 77.44C343.006 78.1973 342.739 78.816 342.206 79.296C341.673 79.7653 341.011 80 340.222 80H336.846V72H338.238V74.88ZM344.046 80V72H345.438V80H344.046ZM338.238 78.704H340.222C340.627 78.704 340.963 78.5867 341.23 78.352C341.497 78.1173 341.63 77.8133 341.63 77.44C341.63 77.0667 341.491 76.7627 341.214 76.528C340.947 76.2827 340.617 76.16 340.222 76.16H338.238V78.704ZM352.093 75.872L355.149 80H353.517L351.277 76.976L349.021 80H347.389L350.461 75.888L347.565 72H349.213L351.277 74.784L353.341 72H354.973L352.093 75.872Z" fill="#E1E1E1"/>
<path d="M0 83.2H355.389V84H0V83.2Z" fill="#E1E1E1"/>
</svg>
