<svg width="24" height="24" viewBox="0 0 24 24" fill="none" xmlns="http://www.w3.org/2000/svg">
<path d="M22 20.35V21C22 21.2652 21.8946 21.5196 21.7071 21.7071C21.5196 21.8946 21.2652 22 21 22H19C14.4913 22 10.1673 20.2089 6.97918 17.0208C3.79107 13.8327 2 9.50868 2 5L2 3C2 2.73478 2.10536 2.48043 2.29289 2.29289C2.48043 2.10536 2.73478 2 3 2H7C7.26522 2 7.51957 2.10536 7.70711 2.29289C7.89464 2.48043 8 2.73478 8 3V7C8 7.56 7.69 8.31 7.3 8.7L5.16 10.84C6.68 14.44 9.56 17.32 13.16 18.84L15.28 16.72C15.68 16.32 16.43 16.01 16.98 16.01H21C21.2635 16.0126 21.5153 16.1192 21.7007 16.3064C21.886 16.4937 21.99 16.7465 21.99 17.01V20.36L22 20.35Z" fill="#555555"/>
</svg>
