<svg width="138" height="40" viewBox="0 0 138 40" fill="none" xmlns="http://www.w3.org/2000/svg">
<path d="M0 26.6C2.4 32.1 7.9 36 14.3 36C11.9 30.5 6.4 26.6 0 26.6Z" fill="#E1E1E1"/>
<path d="M14.2998 36C18.9998 36 23.0998 33.2 24.8998 29.2C20.0998 29.2 16.0998 32 14.2998 36Z" fill="#E1E1E1"/>
<path d="M14.3001 5C7.8001 5 2.6001 10.2 2.6001 16.6C2.6001 23 7.8001 28.2 14.2001 28.2C20.6001 28.2 25.8001 23 25.8001 16.6C25.9001 10.2 20.7001 5 14.3001 5ZM14.3001 22.4C11.1001 22.4 8.5001 19.8 8.5001 16.6C8.5001 13.4 11.1001 10.8 14.3001 10.8C17.5001 10.8 20.1001 13.4 20.1001 16.6C20.1001 19.8 17.5001 22.4 14.3001 22.4Z" fill="#E1E1E1"/>
<path d="M89.1002 16.6H94.0002V35.4H89.1002V28.1H80.6002V35.4H75.7002V16.6H80.6002V23.5H89.1002V16.6ZM96.2002 21.3H102.3V35.5H107.2V21.3H113.2V16.6H96.2002V21.3ZM136.7 31.4V35.4C135.9 35.8 134.8 36 133.6 36C131.1 36 129.8 34.9 129.3 33.1L129.2 33.2C127.7 35 125.7 36 123.1 36C120.6 36 118.4 35.1 116.6 33.1C114.8 31.2 113.9 28.8 113.9 26C113.9 23.2 114.8 20.9 116.6 19C118.4 17.1 120.6 16.1 123.1 16.1C125.6 16.1 127.6 16.9 129 18.6V16.6H133.9V30C133.9 31.1 134.4 31.7 135.5 31.7C135.9 31.7 136.3 31.6 136.7 31.4ZM129.2 26C129.2 24.5 128.7 23.2 127.7 22.2C126.7 21.2 125.5 20.7 124 20.7C122.5 20.7 121.2 21.2 120.3 22.2C119.3 23.2 118.8 24.5 118.8 26C118.8 27.5 119.3 28.8 120.3 29.8C121.3 30.8 122.5 31.3 124 31.3C125.5 31.3 126.8 30.8 127.7 29.8C128.7 28.9 129.2 27.6 129.2 26ZM35.6002 16.6L35.5002 23.7C35.5002 26.6 35.4002 28 34.9002 29.6C34.5002 31.2 33.8002 31.6 32.7002 31.6C32.3002 31.6 32.0002 31.6 31.7002 31.5V35.5C32.1002 35.7 32.7002 35.8 33.5002 35.8C36.9002 35.7 38.6002 34.1 39.4002 31.2C40.0002 29.1 40.1002 27.5 40.2002 25.2L40.3002 21.4H46.3002V35.6H51.2002V16.6H35.6002ZM59.1002 27.3C59.6002 30.5 62.2002 31.6 64.8002 31.6C66.5002 31.6 68.3002 30.9 69.4002 29.9L72.4002 32.9C70.6002 34.9 68.1002 36 64.7002 36C59.9002 36 54.2002 33.2 54.2002 26C54.2002 18.9 59.7002 16 64.4002 16C70.4002 16 72.8002 18.8 72.8002 21.9C72.8002 27.2 66.3002 29.5 59.1002 27.3ZM67.5002 22.6C67.5002 21.1 66.1002 20.5 64.4002 20.5C61.9002 20.5 59.8002 21.5 59.1002 24.2C64.2002 25.7 67.5002 24.6 67.5002 22.6Z" fill="#E1E1E1"/>
</svg>
